HIERARCHY
ROOT Hips
{
	OFFSET 0.000000 8.830580 0.000000
	CHANNELS 6 Xposition Yposition Zposition Zrotation Yrotation Xrotation 
	JOINT Spine
	{
		OFFSET 0.000000 0.010000 0.000000
		CHANNELS 3 Zrotation Yrotation Xrotation
		JOINT Spine1
		{
			OFFSET 0.000000 2.459130 0.000000
			CHANNELS 3 Zrotation Yrotation Xrotation
			JOINT Neck
			{
				OFFSET 0.000000 2.484630 0.000000
				CHANNELS 3 Zrotation Yrotation Xrotation
				JOINT Head_virtual
				{
					OFFSET 0.000000 0.000000 0.000000
					CHANNELS 3 Zrotation Yrotation Xrotation
					JOINT Head
					{
						OFFSET 0.000000 0.927525 0.000000
						CHANNELS 3 Zrotation Yrotation Xrotation
						End Site
						{
							OFFSET 0.000000 0.000000 0.000000
						}
					}
				}
				JOINT LeftUpArm_virtual
				{
					OFFSET 0.000000 0.000000 0.000000
					CHANNELS 3 Zrotation Yrotation Xrotation
					JOINT LeftUpArm
					{
						OFFSET 1.248820 0.000000 0.000000
						CHANNELS 3 Zrotation Yrotation Xrotation
						JOINT LeftForeArm
						{
							OFFSET 2.597580 0.000000 0.000000
							CHANNELS 3 Zrotation Yrotation Xrotation
							JOINT LeftHand
							{
								OFFSET 2.455420 0.000000 0.000000
								CHANNELS 3 Zrotation Yrotation Xrotation
								End Site
								{
									OFFSET 0.000000 0.000000 0.000000
								}
							}
						}
					}
				}
				JOINT RightUpArm_virtual
				{
					OFFSET -0.000000 -0.000000 -0.000000
					CHANNELS 3 Zrotation Yrotation Xrotation
					JOINT RightUpArm
					{
						OFFSET -1.248820 -0.000000 -0.000000
						CHANNELS 3 Zrotation Yrotation Xrotation
						JOINT RightForeArm
						{
							OFFSET -2.597580 -0.000000 -0.000000
							CHANNELS 3 Zrotation Yrotation Xrotation
							JOINT RightHand
							{
								OFFSET -2.455420 -0.000000 -0.000000
								CHANNELS 3 Zrotation Yrotation Xrotation
								End Site
								{
									OFFSET 0.000000 0.000000 0.000000
								}
							}
						}
					}
				}
			}
		}
	}
	JOINT LeftUpLeg
	{
		OFFSET 1.271939 0.000000 0.000000
		CHANNELS 3 Zrotation Yrotation Xrotation
		JOINT LeftLowLeg
		{
			OFFSET 0.000000 -4.342910 0.000000
			CHANNELS 3 Zrotation Yrotation Xrotation
			JOINT LeftFoot
			{
				OFFSET 0.000000 -4.487670 0.000000
				CHANNELS 3 Zrotation Yrotation Xrotation
				JOINT LeftToeBase
				{
					OFFSET 0.000000 0.000000 1.515070
					CHANNELS 3 Zrotation Yrotation Xrotation
					End Site
					{
						OFFSET 0.000000 0.000000 0.000000
					}
				}
			}
		}
	}
	JOINT RightUpLeg
	{
		OFFSET -1.271939 0.000000 0.000000
		CHANNELS 3 Zrotation Yrotation Xrotation
		JOINT RightLowLeg
		{
			OFFSET 0.000000 -4.342910 0.000000
			CHANNELS 3 Zrotation Yrotation Xrotation
			JOINT RightFoot
			{
				OFFSET 0.000000 -4.487670 0.000000
				CHANNELS 3 Zrotation Yrotation Xrotation
				JOINT RightToeBase
				{
					OFFSET 0.000000 0.000000 1.515070
					CHANNELS 3 Zrotation Yrotation Xrotation
					End Site
					{
						OFFSET 0.000000 0.000000 0.000000
					}
				}
			}
		}
	}
}
MOTION
Frames: 11
Frame Time: 0.041667
-18.176971 9.142581 43.593572 -175.530337 5.026221 -175.546692 0.817737 -0.698877 -4.432560 5.972169 -0.182488 -12.209963 0.000000 0.000000 0.000000 -8.267828 -4.844052 31.388528 15.971108 8.715281 -81.433164 -25.004700 11.357500 -10.073500 9.035540 -7.717200 -25.855700 0.000000 -10.513700 0.000000 25.118099 10.320200 22.898600 22.315701 -7.539490 -0.234985 -8.519330 -0.290907 -50.184898 0.000000 16.552299 0.000000 -24.640200 -10.391200 48.971699 1.445794 3.624423 -4.591343 0.000000 0.000000 7.773480 -13.114577 7.899771 1.396859 0.000000 0.000000 -30.096200 7.525791 0.757227 -3.887800 0.000000 0.000000 9.171160 14.183130 -16.603676 3.927397 0.000000 0.000000 -38.638500 
-18.176078 9.142722 43.594127 -175.541754 4.975786 -175.553114 0.832725 -0.702618 -4.394311 5.956212 -0.187956 -12.204166 0.000000 0.000000 0.000000 -8.307081 -4.706155 31.383822 16.036178 8.704742 -81.412998 -25.005301 11.347600 -10.072600 9.047010 -7.747290 -25.871300 0.000000 -10.409300 0.000000 25.058201 10.379900 22.932800 22.280800 -7.545970 -0.296997 -8.455840 -0.300341 -50.054401 0.000000 16.564400 0.000000 -24.691799 -10.451500 48.768299 1.443997 3.575102 -4.613007 0.000000 0.000000 7.802270 -13.118362 7.898627 1.407355 0.000000 0.000000 -30.099500 7.517307 0.702954 -3.882303 0.000000 0.000000 9.152430 14.259082 -16.525514 3.944163 0.000000 0.000000 -38.855301 
-18.175697 9.142821 43.593456 -175.549392 4.973043 -175.553979 0.847527 -0.689223 -4.390048 5.943652 -0.177700 -12.176059 0.000000 0.000000 0.000000 -8.320980 -4.681460 31.394046 16.001219 8.711668 -81.440107 -24.988800 11.327700 -10.032100 9.040450 -7.723910 -25.894600 0.000000 -10.373100 0.000000 25.032801 10.441600 22.951900 22.270201 -7.559700 -0.312988 -8.438300 -0.304854 -50.093300 0.000000 16.565300 0.000000 -24.580900 -10.445500 48.817699 1.438079 3.585231 -4.602717 0.000000 0.000000 7.789730 -13.110425 7.895128 1.419154 0.000000 0.000000 -30.098400 7.510803 0.750698 -3.871983 0.000000 0.000000 9.142110 14.279823 -16.562295 3.925403 0.000000 0.000000 -38.836100 
-18.174641 9.142911 43.593644 -175.553708 4.906493 -175.564701 0.882639 -0.692800 -4.341418 5.893605 -0.184862 -12.163664 0.000000 0.000000 0.000000 -8.296221 -4.706117 31.409006 15.880995 8.762220 -81.452364 -24.943001 11.303400 -9.923020 9.032650 -7.687570 -25.974501 0.000000 -10.370700 0.000000 25.064100 10.529700 22.932899 22.279600 -7.617520 -0.282013 -8.436110 -0.288655 -50.048000 0.000000 16.546700 0.000000 -24.499800 -10.553200 48.860600 1.444534 3.570512 -4.611932 0.000000 0.000000 7.803410 -13.094723 7.858500 1.442550 0.000000 0.000000 -30.132200 7.518005 0.752318 -3.858223 0.000000 0.000000 9.135310 14.291587 -16.620853 3.905515 0.000000 0.000000 -38.823900 
-18.173727 9.142986 43.593286 -175.558254 4.848825 -175.570538 0.889660 -0.702526 -4.341657 5.900852 -0.199164 -12.109674 0.000000 0.000000 0.000000 -8.295365 -4.732696 31.416961 15.842340 8.763350 -81.468369 -24.924000 11.317500 -9.878330 9.013200 -7.709490 -25.954100 0.000000 -10.343300 0.000000 25.146601 10.556900 22.765200 22.299200 -7.625060 -0.278015 -8.487790 -0.296839 -50.045502 0.000000 16.513700 0.000000 -24.440001 -10.596200 48.841000 1.448902 3.532453 -4.610258 0.000000 0.000000 7.798470 -13.108384 7.839365 1.451467 0.000000 0.000000 -30.140600 7.527150 0.692608 -3.850952 0.000000 0.000000 9.156020 14.250816 -16.664908 3.876660 0.000000 0.000000 -38.558901 
-18.173066 9.142968 43.592111 -175.566619 4.807352 -175.578529 0.894924 -0.703642 -4.360640 5.911140 -0.206124 -12.033779 0.000000 0.000000 0.000000 -8.298588 -4.750315 31.441546 15.864336 8.763831 -81.502358 -24.930201 11.327400 -9.909120 9.008470 -7.757350 -25.899401 0.000000 -10.307400 0.000000 25.234800 10.547500 22.664200 22.293501 -7.623940 -0.316986 -8.507210 -0.305008 -49.988300 0.000000 16.485600 0.000000 -24.508301 -10.585600 48.749802 1.446443 3.533218 -4.592648 0.000000 0.000000 7.780080 -13.113079 7.805994 1.466492 0.000000 0.000000 -30.101200 7.520294 0.705881 -3.816400 0.000000 0.000000 9.106770 14.309652 -16.646837 3.882349 0.000000 0.000000 -38.800400 
-18.172169 9.142756 43.591579 -175.577188 4.730018 -175.590054 0.903694 -0.721104 -4.365146 5.892674 -0.227436 -11.985795 0.000000 0.000000 0.000000 -8.277204 -4.780363 31.467003 15.921864 8.779077 -81.493812 -24.932600 11.343700 -10.001500 9.016340 -7.847520 -25.930000 0.000000 -10.284200 0.000000 25.232800 10.510900 22.842699 22.289499 -7.604930 -0.281006 -8.490200 -0.333088 -50.211201 0.000000 16.461700 0.000000 -24.553301 -10.472600 48.838200 1.447379 3.474903 -4.586731 0.000000 0.000000 7.772370 -13.112870 7.791591 1.474415 0.000000 0.000000 -30.094900 7.527681 0.715358 -3.791716 0.000000 0.000000 9.102180 14.267233 -16.793483 3.832683 0.000000 0.000000 -38.569799 
-18.171046 9.142671 43.591514 -175.582067 4.635321 -175.594160 0.904452 -0.739572 -4.361924 5.896780 -0.247039 -11.973413 0.000000 0.000000 0.000000 -8.279789 -4.791308 31.534366 15.980898 8.780793 -81.504986 -24.917000 11.312900 -9.964610 9.011330 -7.800120 -25.801300 0.000000 -10.388400 0.000000 25.120600 10.575300 22.714800 22.298300 -7.651370 -0.244995 -8.509050 -0.299833 -50.264599 0.000000 16.457899 0.000000 -24.617399 -10.473900 48.609299 1.456591 3.412763 -4.603151 0.000000 0.000000 7.783650 -13.120485 7.758978 1.487118 0.000000 0.000000 -30.156200 7.538840 0.699989 -3.782753 0.000000 0.000000 9.096330 14.281919 -16.863843 3.800770 0.000000 0.000000 -38.508400 
-18.170403 9.142678 43.590690 -175.588148 4.569518 -175.593303 0.907581 -0.756608 -4.387763 5.899615 -0.266412 -11.946131 0.000000 0.000000 0.000000 -8.258849 -4.874549 31.612989 15.930570 8.780050 -81.467361 -24.841900 11.339800 -9.902300 8.922070 -7.729300 -25.716600 0.000000 -10.602100 0.000000 24.906700 10.678400 22.554100 22.298901 -7.667460 -0.276001 -8.522540 -0.276083 -50.201099 0.000000 16.461100 0.000000 -24.581600 -10.414800 48.554798 1.456974 3.405665 -4.605280 0.000000 0.000000 7.772670 -13.100875 7.718159 1.507662 0.000000 0.000000 -30.127900 7.541356 0.675982 -3.772693 0.000000 0.000000 9.083670 14.301914 -16.893474 3.779939 0.000000 0.000000 -38.505800 
-18.169958 9.142675 43.590140 -175.592346 4.529505 -175.587460 0.906426 -0.757785 -4.403996 5.911845 -0.267945 -11.943132 0.000000 0.000000 0.000000 -8.266136 -4.895673 31.692576 15.929892 8.766680 -81.450024 -24.856100 11.342600 -9.818680 8.944170 -7.758450 -25.844601 0.000000 -10.600500 0.000000 24.883801 10.614400 22.489100 22.291500 -7.688770 -0.265015 -8.535870 -0.271578 -50.155998 0.000000 16.475201 0.000000 -24.537100 -10.427200 48.509300 1.457746 3.389595 -4.612016 0.000000 0.000000 7.768240 -13.109938 7.696417 1.518886 0.000000 0.000000 -30.154100 7.541777 0.703267 -3.765384 0.000000 0.000000 9.067870 14.346499 -16.931501 3.758433 0.000000 0.000000 -38.576000 
-18.169463 9.142677 43.589351 -175.600555 4.480506 -175.578164 0.900267 -0.766419 -4.434677 5.929954 -0.277464 -11.926442 0.000000 0.000000 0.000000 -8.264375 -4.958948 31.803959 15.862999 8.766237 -81.442943 -24.868700 11.369800 -9.909940 8.934550 -7.843420 -25.726700 0.000000 -10.573300 0.000000 24.973400 10.517300 22.465300 22.279400 -7.717360 -0.247009 -8.545410 -0.246364 -50.201900 0.000000 16.493401 0.000000 -24.403000 -10.450000 48.471401 1.455508 3.361636 -4.620297 0.000000 0.000000 7.759650 -13.131287 7.670229 1.526662 0.000000 0.000000 -30.149300 7.534347 0.662273 -3.760872 0.000000 0.000000 9.042300 14.411445 -16.868957 3.761470 0.000000 0.000000 -38.694599 
